<?xml version="1.0" encoding="UTF-8" standalone="no"?>
<!-- Created with Inkscape (http://www.inkscape.org/) -->

<svg
   width="115"
   height="115"
   viewBox="0 0 30.427083 30.427084"
   version="1.1"
   id="svg1"
   inkscape:version="1.4.4 (dcaf3e7d9e, 2026-05-05)"
   sodipodi:docname="inkscape.svg"
   xml:space="preserve"
   inkscape:export-filename="../../playsheet/.notes/microsoft-store/microsoft-store_icon.png"
   inkscape:export-xdpi="901.56525"
   inkscape:export-ydpi="901.56525"
   inkscape:export-batch-name=""
   inkscape:export-batch-path="../assets/icons"
   xmlns:inkscape="http://www.inkscape.org/namespaces/inkscape"
   xmlns:sodipodi="http://sodipodi.sourceforge.net/DTD/sodipodi-0.dtd"
   xmlns:xlink="http://www.w3.org/1999/xlink"
   xmlns="http://www.w3.org/2000/svg"
   xmlns:svg="http://www.w3.org/2000/svg"><sodipodi:namedview
     id="namedview1"
     pagecolor="#2f2f2f"
     bordercolor="#eeeeee"
     borderopacity="1"
     inkscape:showpageshadow="0"
     inkscape:pageopacity="0"
     inkscape:pagecheckerboard="0"
     inkscape:deskcolor="#2f2f2f"
     inkscape:document-units="px"
     showgrid="true"
     inkscape:zoom="5.0956522"
     inkscape:cx="77.320819"
     inkscape:cy="67.704778"
     inkscape:window-width="1707"
     inkscape:window-height="1247"
     inkscape:window-x="0"
     inkscape:window-y="0"
     inkscape:window-maximized="0"
     inkscape:current-layer="layer5"><inkscape:grid
       id="grid1"
       units="mm"
       originx="0"
       originy="0"
       spacingx="0.99999999"
       spacingy="0.99999999"
       empcolor="#0099e5"
       empopacity="0.30196078"
       color="#0099e5"
       opacity="0.14901961"
       empspacing="5"
       enabled="true"
       visible="true" /></sodipodi:namedview><defs
     id="defs1"><linearGradient
       inkscape:collect="always"
       xlink:href="#linearGradient1"
       id="linearGradient2-2"
       x1="25.971146"
       y1="4.4559431"
       x2="4.4559431"
       y2="25.971146"
       gradientUnits="userSpaceOnUse" /><linearGradient
       id="linearGradient1"
       inkscape:collect="always"><stop
         style="stop-color:#ffb74d;stop-opacity:1;"
         offset="0"
         id="stop1-9" /><stop
         style="stop-color:#e57373;stop-opacity:1;"
         offset="1"
         id="stop2-1" /></linearGradient></defs><g
     inkscape:groupmode="layer"
     id="layer2-3"
     inkscape:label="colors"
     style="display:none"
     transform="translate(-3.1749971,4.2333318)"><rect
       style="display:inline;fill:#ffb74d;fill-opacity:1;stroke:#ffffff;stroke-width:0.239463;stroke-miterlimit:0"
       id="rect2-3-1-1-3"
       width="26.218872"
       height="26.21887"
       x="-67.34903"
       y="26.578053"
       inkscape:label="orange" /><rect
       style="display:inline;fill:#9575cd;fill-opacity:1;stroke:#ffffff;stroke-width:0.239463;stroke-miterlimit:0"
       id="rect2-3-1-5"
       width="26.218872"
       height="26.21887"
       x="-67.349022"
       y="0.1197283"
       inkscape:label="lila" /><rect
       style="display:inline;fill:#8bedde;fill-opacity:1;stroke:#ffffff;stroke-width:0.239463;stroke-miterlimit:0"
       id="rect2-3-6"
       width="26.218872"
       height="26.21887"
       x="-40.89069"
       y="-13.10944"
       inkscape:label="mint_old" /><rect
       style="display:inline;fill:#8fdcbe;fill-opacity:1;stroke:#ffffff;stroke-width:0.239463;stroke-miterlimit:0"
       id="rect29"
       width="26.218872"
       height="26.21887"
       x="-67.349022"
       y="-26.338606"
       inkscape:label="mint" /><rect
       style="display:inline;fill:#e57373;fill-opacity:1;stroke:#ffffff;stroke-width:0.156398;stroke-miterlimit:0"
       id="rect4-2"
       width="26.301935"
       height="26.301935"
       x="-93.848885"
       y="39.765694"
       inkscape:label="rot" /><rect
       style="display:inline;fill:#64b5f6;fill-opacity:1;stroke:#ffffff;stroke-width:0.274705;stroke-miterlimit:0"
       id="rect3-9"
       width="26.183628"
       height="26.183628"
       x="-93.789726"
       y="13.366516"
       inkscape:label="blau" /><rect
       style="display:inline;fill:#fff176;fill-opacity:1;stroke:#ffffff;stroke-width:0.156398;stroke-miterlimit:0"
       id="rect4-7-1"
       width="26.301935"
       height="26.301935"
       x="-93.848885"
       y="-13.15097"
       inkscape:label="gelb" /><rect
       style="display:inline;fill:#aed581;fill-opacity:1;stroke:#ffffff;stroke-width:0.239463;stroke-miterlimit:0"
       id="rect2-2"
       width="26.218872"
       height="26.21887"
       x="-93.80735"
       y="-39.567768"
       inkscape:label="grün" /></g><g
     inkscape:groupmode="layer"
     id="g2"
     inkscape:label="-----"
     style="display:inline" /><g
     inkscape:groupmode="layer"
     id="g55-0"
     inkscape:label="color_teal_icon_android_background"
     style="display:inline"
     sodipodi:insensitive="true"><rect
       style="display:inline;opacity:1;fill:url(#linearGradient2-2);fill-opacity:1;stroke:none;stroke-width:41.8316;stroke-linecap:round;stroke-linejoin:round"
       id="rect2-9"
       width="30.427084"
       height="30.427084"
       x="-1.7763568e-15"
       y="-1.7763568e-15"
       inkscape:label="Background" /></g><g
     inkscape:groupmode="layer"
     id="g7"
     inkscape:label="color_teal_icon_android"
     style="display:none"><rect
       style="display:inline;opacity:1;fill:url(#linearGradient2-2);fill-opacity:1;stroke:none;stroke-width:41.8316;stroke-linecap:round;stroke-linejoin:round"
       id="rect37"
       width="30.427084"
       height="30.427084"
       x="-1.7763568e-15"
       y="-1.7763568e-15"
       inkscape:label="Background" /><g
       inkscape:groupmode="layer"
       id="g55"
       inkscape:label="icon"
       style="display:inline"
       transform="matrix(0.63725544,0,0,0.63725544,5.3500303,5.3500295)"><path
         id="path38"
         style="display:inline;fill:none;fill-opacity:1;stroke:#464646;stroke-width:3.20836;stroke-linecap:square;stroke-dasharray:none;stroke-opacity:1"
         inkscape:label="stopwatch shadow"
         d="m 12.822302,3.588555 h 1.647412 M 13.646007,4.4548931 V 6.2333079 M 24.807326,16.732778 h -0.316375 m -1.064377,0.782917 A 9.9189868,9.8519858 0 0 1 13.65097,27.366656 9.9189868,9.8519858 0 0 1 3.5927488,17.80049 9.9189868,9.8519858 0 0 1 13.077564,7.6729744 9.9189868,9.8519858 0 0 1 23.409997,16.946342" /><path
         id="path39"
         style="display:inline;fill:none;fill-opacity:1;stroke:#fff176;stroke-width:3.14212;stroke-linecap:square;stroke-dasharray:none;stroke-opacity:1"
         inkscape:label="stopwatch"
         d="m 12.587676,3.555435 h 1.61146 m -0.80573,0.8494723 V 6.1487 m 10.917748,10.295067 h -0.309472 m -1.041149,0.767675 A 9.7025267,9.6601878 0 0 1 13.39826,26.870624 9.7025267,9.6601878 0 0 1 3.5595373,17.490693 9.7025267,9.6601878 0 0 1 12.837367,7.560339 9.7025267,9.6601878 0 0 1 22.944318,16.653174" /><path
         style="display:inline;fill:none;fill-opacity:1;stroke:#464646;stroke-width:4.88513;stroke-linecap:square;stroke-dasharray:none;stroke-opacity:1"
         d="M 5.5739491,9.7242991 12.733376,17.954169 25.518072,5.6093657"
         id="path40"
         inkscape:label="check shadow"
         sodipodi:nodetypes="ccc" /><path
         style="display:inline;fill:none;fill-opacity:1;stroke:#aed581;stroke-width:4.77111;stroke-linecap:square;stroke-dasharray:none;stroke-opacity:1"
         d="M 5.4946586,9.527421 12.52166,17.525479 25.069875,5.528394"
         id="path54"
         inkscape:label="check"
         sodipodi:nodetypes="ccc" /></g></g><g
     inkscape:groupmode="layer"
     id="g73"
     inkscape:label="-----"
     style="display:inline" /><g
     inkscape:groupmode="layer"
     id="g27"
     inkscape:label="red_transparent_trash"
     style="display:none"><rect
       style="display:inline;opacity:1;fill:#000000;fill-opacity:0;stroke:none;stroke-width:41.8316;stroke-linecap:round;stroke-linejoin:round"
       id="rect16"
       width="30.427084"
       height="30.427084"
       x="-1.7763568e-15"
       y="-1.7763568e-15"
       inkscape:label="Background" /><path
       id="path25"
       style="display:inline;fill:#aa0000;fill-opacity:1;stroke:none;stroke-width:2.62973;stroke-linecap:square;stroke-dasharray:none"
       inkscape:label="fill"
       d="m 20.483848,10.431772 c 0,7.553887 0,14.163541 -1.483848,14.163541 H 7.1292182 c -1.4838477,-2e-6 -1.4838477,-6.609654 -1.4838477,-14.163541"
       sodipodi:nodetypes="cssc" /><path
       id="path26"
       style="display:inline;fill:none;fill-opacity:1;stroke:#aa0000;stroke-width:3.13646;stroke-linecap:square;stroke-dasharray:none;stroke-opacity:1"
       inkscape:label="can"
       d="m 20.942958,10.015636 c 0,8.000008 0,15.000017 -1.993085,15.000017 H 3.0051976 c -1.9930844,-1e-6 -1.9930844,-7.000009 -1.9930844,-15.000017"
       sodipodi:nodetypes="cssc"
       transform="matrix(1.0034698,0,0,0.99999888,1.984375,1.984375)" /><path
       id="path27"
       style="display:inline;fill:none;fill-opacity:1;stroke:#aa0000;stroke-width:3.13646;stroke-linecap:square;stroke-dasharray:none;stroke-opacity:1"
       inkscape:label="top"
       d="M 9.9809931,1.5448439 H 11.974078 M 10.977535,2.4179086 V 4.0156294 M 1.0121132,6.0156316 c 0,0 0,0 9.9654218,0 9.965423,0 9.965423,0 9.965423,0"
       transform="matrix(1.0034698,0,0,0.99999888,1.984375,1.984375)"
       sodipodi:nodetypes="cccccsc" /></g><g
     inkscape:groupmode="layer"
     id="g9"
     inkscape:label="red_transparent_done"
     style="display:none"
     transform="matrix(1.0034698,0,0,0.99999888,1.984375,1.984375)"><rect
       style="display:inline;opacity:1;fill:#000000;fill-opacity:0;stroke:none;stroke-width:41.8316;stroke-linecap:round;stroke-linejoin:round"
       id="rect2"
       width="30.427084"
       height="30.427084"
       x="-1.7763568e-15"
       y="-1.7763568e-15"
       inkscape:label="Background"
       transform="matrix(0.99654219,0,0,1.0000011,-1.9775134,-1.9843772)" /><path
       id="path8"
       style="display:inline;fill:none;fill-opacity:1;stroke:#aa0000;stroke-width:3.13646;stroke-linecap:square;stroke-dasharray:none;stroke-opacity:1"
       inkscape:label="stopwatch"
       d="m 10.565765,1.56823 h 1.605269 M 11.3684,2.4179086 V 4.1621247 M 22.244196,14.459692 h -0.308281 m -1.037149,0.767863 a 9.6652459,9.6625343 0 0 1 -9.52553,9.661525 9.6652459,9.6625343 0 0 1 -9.8009209,-9.382206 9.6652459,9.6625343 0 0 1 9.2421829,-9.932767 9.6652459,9.6625343 0 0 1 10.068115,9.095044" /><path
       id="path9"
       style="display:inline;fill:#aa0000;fill-opacity:1;stroke:#aa0000;stroke-width:1.84384;stroke-linecap:round;stroke-linejoin:bevel;stroke-dasharray:none;stroke-opacity:1"
       inkscape:label="done"
       d="m 16.940696,15.075486 c 0,3.111847 -2.48877,5.647019 -5.587818,5.692001 -3.0990453,0.04499 -5.6597678,-2.416896 -5.7493626,-5.527442 -0.089595,-3.110546 2.3251454,-5.7168925 5.4216006,-5.8518019 3.096455,-0.1349093 5.726989,2.2516199 5.906104,5.3582649"
       sodipodi:nodetypes="csssc" /></g><g
     inkscape:groupmode="layer"
     id="g1"
     inkscape:label="-----"
     style="display:inline" /><g
     inkscape:groupmode="layer"
     id="g56"
     inkscape:label="white_transparent_trash"
     style="display:none"><rect
       style="display:inline;opacity:1;fill:#000000;fill-opacity:0;stroke:none;stroke-width:41.8316;stroke-linecap:round;stroke-linejoin:round"
       id="rect42"
       width="30.427084"
       height="30.427084"
       x="-1.7763568e-15"
       y="-1.7763568e-15"
       inkscape:label="Background" /><path
       id="path53"
       style="display:inline;fill:#ffffff;fill-opacity:1;stroke:none;stroke-width:2.62973;stroke-linecap:square;stroke-dasharray:none"
       inkscape:label="fill"
       d="m 20.483848,10.431772 c 0,7.553887 0,14.163541 -1.483848,14.163541 H 7.1292182 c -1.4838477,-2e-6 -1.4838477,-6.609654 -1.4838477,-14.163541"
       sodipodi:nodetypes="cssc" /><path
       id="path55"
       style="display:inline;fill:none;fill-opacity:1;stroke:#ffffff;stroke-width:3.13646;stroke-linecap:square;stroke-dasharray:none;stroke-opacity:1"
       inkscape:label="can"
       d="m 20.942958,10.015636 c 0,8.000008 0,15.000017 -1.993085,15.000017 H 3.0051976 c -1.9930844,-1e-6 -1.9930844,-7.000009 -1.9930844,-15.000017"
       sodipodi:nodetypes="cssc"
       transform="matrix(1.0034698,0,0,0.99999888,1.984375,1.984375)" /><path
       id="path56"
       style="display:inline;fill:none;fill-opacity:1;stroke:#ffffff;stroke-width:3.13646;stroke-linecap:square;stroke-dasharray:none;stroke-opacity:1"
       inkscape:label="top"
       d="M 9.9809931,1.5448439 H 11.974078 M 10.977535,2.4179086 V 4.0156294 M 1.0121132,6.0156316 c 0,0 0,0 9.9654218,0 9.965423,0 9.965423,0 9.965423,0"
       transform="matrix(1.0034698,0,0,0.99999888,1.984375,1.984375)"
       sodipodi:nodetypes="cccccsc" /></g><g
     inkscape:groupmode="layer"
     id="g16"
     inkscape:label="white_transparent_done"
     style="display:none"
     transform="matrix(1.0034698,0,0,0.99999888,1.984375,1.984375)"><rect
       style="display:inline;opacity:1;fill:#000000;fill-opacity:0;stroke:none;stroke-width:41.8316;stroke-linecap:round;stroke-linejoin:round"
       id="rect6"
       width="30.427084"
       height="30.427084"
       x="-1.7763568e-15"
       y="-1.7763568e-15"
       inkscape:label="Background"
       transform="matrix(0.99654219,0,0,1.0000011,-1.9775134,-1.9843772)" /><path
       id="path15"
       style="display:inline;fill:none;fill-opacity:1;stroke:#ffffff;stroke-width:3.13646;stroke-linecap:square;stroke-dasharray:none;stroke-opacity:1"
       inkscape:label="stopwatch"
       d="m 10.565765,1.56823 h 1.605269 M 11.3684,2.4179086 V 4.1621247 M 22.244196,14.459692 h -0.308281 m -1.037149,0.767863 a 9.6652459,9.6625343 0 0 1 -9.52553,9.661525 9.6652459,9.6625343 0 0 1 -9.8009209,-9.382206 9.6652459,9.6625343 0 0 1 9.2421829,-9.932767 9.6652459,9.6625343 0 0 1 10.068115,9.095044" /><path
       id="path16"
       style="display:inline;fill:#ffffff;fill-opacity:1;stroke:#ffffff;stroke-width:1.84384;stroke-linecap:round;stroke-linejoin:bevel;stroke-dasharray:none;stroke-opacity:1"
       inkscape:label="done"
       d="m 16.940696,15.075486 c 0,3.111847 -2.48877,5.647019 -5.587818,5.692001 -3.0990453,0.04499 -5.6597678,-2.416896 -5.7493626,-5.527442 -0.089595,-3.110546 2.3251454,-5.7168925 5.4216006,-5.8518019 3.096455,-0.1349093 5.726989,2.2516199 5.906104,5.3582649"
       sodipodi:nodetypes="csssc" /></g><g
     inkscape:groupmode="layer"
     id="g85"
     inkscape:label="white_transparent_redo"
     style="display:none"><rect
       style="opacity:1;fill:#000000;fill-opacity:0;stroke:none;stroke-width:41.8316;stroke-linecap:round;stroke-linejoin:round"
       id="rect83"
       width="30.427084"
       height="30.427084"
       x="-1.7763568e-15"
       y="-1.7763568e-15"
       inkscape:label="Background" /><path
       id="path83"
       style="display:inline;fill:none;fill-opacity:1;stroke:#ffffff;stroke-width:3.68823;stroke-linecap:butt;stroke-dasharray:none;stroke-opacity:1"
       inkscape:label="stopwatch"
       d="m 24.993075,15.213594 c 0,6.223579 -4.97903,11.293835 -11.178979,11.3838 C 7.6141487,26.687358 2.4911711,21.763683 2.3119283,15.542703 2.1326863,9.321725 6.9636097,4.1091227 13.158372,3.8393082 c 4.51592,-0.1966919 8.536487,2.2864851 10.52286,6.0538751"
       sodipodi:nodetypes="csssc" /><path
       id="path84"
       style="display:inline;fill:none;fill-opacity:1;stroke:#ffffff;stroke-width:3.68823;stroke-linecap:square;stroke-dasharray:none;stroke-opacity:1"
       inkscape:label="pfeil"
       d="m 21.478641,17 3,-2 3,2"
       sodipodi:nodetypes="ccc" /><path
       style="display:inline;opacity:1;fill:none;fill-opacity:1;stroke:#ffffff;stroke-width:2.14484;stroke-linecap:square;stroke-dasharray:none;stroke-opacity:1"
       d="M 15.408843,18.490787 11.706607,15.45725 16.906189,9.6373043"
       id="path85"
       inkscape:label="check"
       sodipodi:nodetypes="ccc" /></g><g
     inkscape:groupmode="layer"
     id="g52"
     inkscape:label="white_transparent_notes"
     style="display:none"><rect
       style="opacity:1;fill:#000000;fill-opacity:0;stroke:none;stroke-width:41.8316;stroke-linecap:round;stroke-linejoin:round"
       id="rect41"
       width="30.427084"
       height="30.427084"
       x="-1.7763568e-15"
       y="-1.7763568e-15"
       inkscape:label="Background" /><path
       id="path41"
       style="display:inline;fill:none;fill-opacity:1;stroke:#ffffff;stroke-width:2.44552;stroke-linecap:square;stroke-dasharray:none;stroke-opacity:1"
       inkscape:label="stopwatch"
       d="m 3.207135,3.207135 h 19.658777 l 4.354044,4.0707335 V 27.219952 H 3.207135 Z"
       sodipodi:nodetypes="cccccc" /><path
       style="display:inline;opacity:1;fill:none;fill-opacity:1;stroke:#ffffff;stroke-width:1.05833;stroke-linecap:square;stroke-dasharray:none;stroke-opacity:1"
       d="M 5.5291657,6.4708207 17.74181,6.4708343"
       id="path42"
       inkscape:label="check"
       sodipodi:nodetypes="cc" /><path
       style="display:inline;fill:none;fill-opacity:1;stroke:#ffffff;stroke-width:0.529167;stroke-linecap:square;stroke-dasharray:none;stroke-opacity:1"
       d="m 5.5562513,8.7312513 18.4708247,7.92e-5"
       id="path43"
       inkscape:label="check"
       sodipodi:nodetypes="cc" /><path
       style="display:inline;fill:none;fill-opacity:1;stroke:#ffffff;stroke-width:0.529167;stroke-linecap:square;stroke-dasharray:none;stroke-opacity:1"
       d="m 5.5562513,10.318751 18.4708247,7.9e-5"
       id="path44"
       inkscape:label="check"
       sodipodi:nodetypes="cc" /><path
       style="display:inline;fill:none;fill-opacity:1;stroke:#ffffff;stroke-width:0.529167;stroke-linecap:square;stroke-dasharray:none;stroke-opacity:1"
       d="m 5.5562513,11.906251 18.4708247,7.9e-5"
       id="path45"
       inkscape:label="check"
       sodipodi:nodetypes="cc" /><path
       style="display:inline;fill:none;fill-opacity:1;stroke:#ffffff;stroke-width:0.529167;stroke-linecap:square;stroke-dasharray:none;stroke-opacity:1"
       d="m 5.5562513,13.493752 18.4708247,7.9e-5"
       id="path46"
       inkscape:label="check"
       sodipodi:nodetypes="cc" /><path
       style="display:inline;fill:none;fill-opacity:1;stroke:#ffffff;stroke-width:0.529167;stroke-linecap:square;stroke-dasharray:none;stroke-opacity:1"
       d="m 5.5562513,15.081251 18.4708247,7.9e-5"
       id="path47"
       inkscape:label="check"
       sodipodi:nodetypes="cc" /><path
       style="display:inline;fill:none;fill-opacity:1;stroke:#ffffff;stroke-width:0.529167;stroke-linecap:square;stroke-dasharray:none;stroke-opacity:1"
       d="m 5.5562513,16.668751 18.4708247,7.9e-5"
       id="path48"
       inkscape:label="check"
       sodipodi:nodetypes="cc" /><path
       style="display:inline;fill:none;fill-opacity:1;stroke:#ffffff;stroke-width:0.529167;stroke-linecap:square;stroke-dasharray:none;stroke-opacity:1"
       d="m 5.5562513,18.256251 18.4708247,7.9e-5"
       id="path49"
       inkscape:label="check"
       sodipodi:nodetypes="cc" /><path
       style="display:inline;fill:none;fill-opacity:1;stroke:#ffffff;stroke-width:0.529167;stroke-linecap:square;stroke-dasharray:none;stroke-opacity:1"
       d="m 5.5562513,19.843751 18.4708247,7.9e-5"
       id="path50"
       inkscape:label="check"
       sodipodi:nodetypes="cc" /><path
       style="display:inline;fill:none;fill-opacity:1;stroke:#ffffff;stroke-width:0.529167;stroke-linecap:square;stroke-dasharray:none;stroke-opacity:1"
       d="m 5.5562513,21.431251 18.4708247,7.9e-5"
       id="path51"
       inkscape:label="check"
       sodipodi:nodetypes="cc" /><path
       style="display:inline;fill:none;fill-opacity:1;stroke:#ffffff;stroke-width:0.529135;stroke-linecap:square;stroke-dasharray:none;stroke-opacity:1"
       d="m 5.5562354,23.018735 13.1791896,1.11e-4"
       id="path52"
       inkscape:label="check"
       sodipodi:nodetypes="cc" /></g><g
     inkscape:groupmode="layer"
     id="g79"
     inkscape:label="white_transparent_settings"
     style="display:none"><rect
       style="display:inline;opacity:1;fill:#000000;fill-opacity:0;stroke:none;stroke-width:41.8316;stroke-linecap:round;stroke-linejoin:round"
       id="rect73"
       width="30.427084"
       height="30.427084"
       x="-1.7763568e-15"
       y="-1.7763568e-15"
       inkscape:label="Background" /><path
       id="path73"
       style="display:inline;fill:none;fill-opacity:1;stroke:#ffffff;stroke-width:2.87031;stroke-linecap:square;stroke-dasharray:none;stroke-opacity:1"
       inkscape:label="stopwatch"
       d="M 4.2085357,9.5730966 4.9443352,8.2986555 m 0.3043372,1.0253361 1.379963,0.7967224 M 19.751603,7.6089103 c 4.178935,2.4127087 5.638794,7.7465527 3.277693,11.9756077 -2.361106,4.229055 -7.668075,5.785908 -11.915272,3.495463 C 6.8668274,20.789533 5.2535421,15.500701 7.4918569,11.205427 9.7301728,6.9101535 14.9905,5.2004005 19.302409,7.3666669"
       sodipodi:nodetypes="cccccsssc" /><path
       id="path74"
       style="display:inline;fill:none;fill-opacity:1;stroke:#ffffff;stroke-width:2.87031;stroke-linecap:square;stroke-dasharray:none;stroke-opacity:1"
       inkscape:label="stopwatch"
       d="M 4.6806322,22.085933 3.9448334,20.811492 m 1.0401355,0.249104 1.3799629,-0.796722 M 10.75113,7.6431509 c 4.178936,-2.4127095 9.528111,-1.0100624 12.010031,3.1492411 2.481916,4.159304 1.176707,9.533699 -2.930477,12.066656 C 15.7235,25.392004 10.336591,24.144733 7.7359325,20.058659 5.135274,15.972585 6.2847483,10.562132 10.316744,7.9110424"
       sodipodi:nodetypes="cccccsssc" /><path
       id="path75"
       style="display:inline;fill:none;fill-opacity:1;stroke:#ffffff;stroke-width:2.87031;stroke-linecap:square;stroke-dasharray:none;stroke-opacity:1"
       inkscape:label="stopwatch"
       d="m 15.891864,27.748605 h -1.471597 m 0.735798,-0.776231 V 25.37893 M 6.4192955,15.270011 c -10e-8,-4.825418 3.8893155,-8.7566161 8.7323365,-8.82637 4.843022,-0.06975 8.844782,3.747793 8.984796,8.571196 0.140013,4.823402 -3.633611,8.864964 -8.472585,9.074164 C 10.824869,24.2982 6.7140157,20.597499 6.4341036,15.780146"
       sodipodi:nodetypes="cccccsssc" /><path
       id="path76"
       style="display:inline;fill:none;fill-opacity:1;stroke:#ffffff;stroke-width:2.87031;stroke-linecap:square;stroke-dasharray:none;stroke-opacity:1"
       inkscape:label="stopwatch"
       d="m 26.308687,20.990697 -0.7358,1.274441 M 25.26855,21.239802 23.888587,20.44308 M 10.765619,22.954883 C 6.5866838,20.542174 5.1268246,15.208331 7.4879267,10.979275 9.8490326,6.7502199 15.156001,5.1933671 19.403198,7.483813 c 4.247198,2.2904466 5.860482,7.579282 3.622168,11.874555 -2.238316,4.295272 -7.498644,6.005025 -11.810552,3.838759"
       sodipodi:nodetypes="cccccsssc" /><path
       id="path77"
       style="display:inline;fill:none;fill-opacity:1;stroke:#ffffff;stroke-width:2.87031;stroke-linecap:square;stroke-dasharray:none;stroke-opacity:1"
       inkscape:label="stopwatch"
       d="m 25.746452,8.5470996 0.735798,1.274441 M 25.442115,9.5724356 24.062152,10.369158 M 19.675954,22.98988 C 15.497017,25.402589 10.147843,23.999943 7.6659238,19.840641 5.1840069,15.681337 6.4892167,10.306942 10.5964,7.7739844 c 4.107184,-2.5329567 9.494092,-1.285685 12.094752,2.8003896 2.600658,4.086074 1.451184,9.496527 -2.580813,12.147615"
       sodipodi:nodetypes="cccccsssc" /><path
       id="path78"
       style="display:inline;fill:none;fill-opacity:1;stroke:#ffffff;stroke-width:2.87031;stroke-linecap:square;stroke-dasharray:none;stroke-opacity:1"
       inkscape:label="stopwatch"
       d="m 14.613469,2.8242177 h 1.471597 m -0.735798,0.7762312 v 1.5934437 m 8.73677,10.1089204 c 0,4.825418 -3.889315,8.756614 -8.732337,8.826368 -4.843023,0.06975 -8.8447811,-3.747792 -8.9847952,-8.571194 -0.1400132,-4.823403 3.6336102,-8.8649663 8.4725842,-9.0741658 4.838974,-0.2091988 8.949829,3.4915014 9.22974,8.3088568"
       sodipodi:nodetypes="cccccsssc" /><path
       id="path79"
       style="display:inline;fill:none;fill-opacity:1;stroke:#ffffff;stroke-width:3.38398;stroke-linecap:round;stroke-dasharray:none;stroke-opacity:1"
       inkscape:label="ring"
       d="m 24.086038,15.302813 c 0,4.825418 -3.889315,8.756614 -8.732337,8.826368 -4.843023,0.06975 -8.8447811,-3.747792 -8.9847952,-8.571194 -0.1400132,-4.823403 3.6336102,-8.8649663 8.4725842,-9.0741658 4.838974,-0.2091988 8.949829,3.4915014 9.22974,8.3088568"
       sodipodi:nodetypes="csssc" /></g><g
     inkscape:groupmode="layer"
     id="g19"
     inkscape:label="white_transparent_statistic"
     style="display:none"><rect
       style="opacity:1;fill:#000000;fill-opacity:0;stroke:none;stroke-width:41.8316;stroke-linecap:round;stroke-linejoin:round"
       id="rect17"
       width="30.427084"
       height="30.427084"
       x="-1.7763568e-15"
       y="-1.7763568e-15"
       inkscape:label="Background" /><path
       id="path17"
       style="display:inline;fill:none;fill-opacity:1;stroke:#ffffff;stroke-width:6.81292;stroke-linecap:square;stroke-dasharray:none;stroke-opacity:1"
       inkscape:label="stopwatch"
       d="M 5.3908351,10.730878 V 24.991594"
       sodipodi:nodetypes="cc" /><path
       id="path18"
       style="display:inline;fill:none;fill-opacity:1;stroke:#ffffff;stroke-width:7.79453;stroke-linecap:square;stroke-dasharray:none;stroke-opacity:1"
       inkscape:label="stopwatch"
       d="M 15.954385,5.8816393 V 24.547865"
       sodipodi:nodetypes="cc" /><path
       id="path19"
       style="display:inline;fill:none;fill-opacity:1;stroke:#ffffff;stroke-width:5.66229;stroke-linecap:square;stroke-dasharray:none;stroke-opacity:1"
       inkscape:label="stopwatch"
       d="M 25.611564,15.661168 V 25.51172"
       sodipodi:nodetypes="cc" /></g><g
     inkscape:groupmode="layer"
     id="g72"
     inkscape:label="-----" /><g
     inkscape:groupmode="layer"
     id="layer4"
     inkscape:label="white_transparent_backlog"
     style="display:none"
     transform="matrix(1.0034698,0,0,0.99999888,1.984375,1.984375)"><rect
       style="display:inline;opacity:1;fill:#000000;fill-opacity:0;stroke:none;stroke-width:41.8316;stroke-linecap:round;stroke-linejoin:round"
       id="rect11"
       width="30.427084"
       height="30.427084"
       x="-1.7763568e-15"
       y="-1.7763568e-15"
       inkscape:label="Background"
       transform="matrix(0.99654219,0,0,1.0000011,-1.9775134,-1.9843772)" /><path
       id="path5"
       style="display:inline;fill:none;fill-opacity:1;stroke:#ffffff;stroke-width:3.13646;stroke-linecap:square;stroke-dasharray:none;stroke-opacity:1"
       inkscape:label="stopwatch"
       d="m 10.565765,1.56823 h 1.605269 M 11.3684,2.4179086 V 4.1621247 M 22.244196,14.459692 h -0.308281 m -1.037149,0.767863 a 9.6652459,9.6625343 0 0 1 -9.52553,9.661525 9.6652459,9.6625343 0 0 1 -9.8009209,-9.382206 9.6652459,9.6625343 0 0 1 9.2421829,-9.932767 9.6652459,9.6625343 0 0 1 10.068115,9.095044" /><path
       id="path21"
       style="display:inline;fill:#ffffff;fill-opacity:1;stroke:#ffffff;stroke-width:1.17466;stroke-linecap:round;stroke-linejoin:bevel;stroke-dasharray:none;stroke-opacity:1"
       inkscape:label="."
       d="m 12.173389,22.383792 c 0,0.402569 -0.323073,0.730534 -0.725369,0.736354 -0.402295,0.0059 -0.73471,-0.312665 -0.746341,-0.715065 -0.01162,-0.4024 0.301833,-0.739573 0.703792,-0.757026 0.401959,-0.01746 0.743437,0.291285 0.766688,0.693179"
       sodipodi:nodetypes="csssc"
       transform="matrix(1.1262082,0,0,1.1262082,-1.6362248,-2.1872201)" /><path
       style="display:inline;fill:none;fill-opacity:1;stroke:#ffffff;stroke-width:2.34933;stroke-linecap:round;stroke-linejoin:round;stroke-dasharray:none;stroke-opacity:1"
       d="m 7.7666885,12.762696 c 0,-0.538885 0.5388853,-2.694426 3.2333115,-2.694426 2.694425,0 4.311082,1.07777 4.311082,2.694426 0,2.155541 -3.522055,2.033365 -4.311082,3.772197 -0.371127,0.817879 0,2.694426 0,2.694426"
       id="path20"
       sodipodi:nodetypes="cssac"
       inkscape:label="?"
       transform="matrix(1.1262082,0,0,1.1262082,-1.6362248,-2.1872201)" /></g><g
     inkscape:groupmode="layer"
     id="layer3"
     inkscape:label="white_transparent_today"
     style="display:none"><rect
       style="display:inline;opacity:1;fill:#000000;fill-opacity:0;stroke:none;stroke-width:41.8316;stroke-linecap:round;stroke-linejoin:round"
       id="rect10"
       width="30.427084"
       height="30.427084"
       x="-1.7763568e-15"
       y="-1.7763568e-15"
       inkscape:label="Background" /><path
       id="path1"
       style="display:inline;fill:none;fill-opacity:1;stroke:#ffffff;stroke-width:3.13646;stroke-linecap:square;stroke-dasharray:none;stroke-opacity:1"
       inkscape:label="stopwatch"
       d="m 10.565765,1.56823 h 1.605269 M 11.3684,2.4179086 V 4.1621247 M 22.244196,14.459692 h -0.308281 m -1.037149,0.767863 a 9.6652459,9.6625343 0 0 1 -9.52553,9.661525 9.6652459,9.6625343 0 0 1 -9.8009209,-9.382206 9.6652459,9.6625343 0 0 1 9.2421829,-9.932767 9.6652459,9.6625343 0 0 1 10.068115,9.095044"
       transform="matrix(1.0034698,0,0,0.99999888,1.984375,1.984375)" /></g><g
     inkscape:groupmode="layer"
     id="g54"
     inkscape:label="-----"
     style="display:inline" /><g
     inkscape:groupmode="layer"
     id="g14"
     inkscape:label="white_transparent_icon"
     style="display:none"><rect
       style="opacity:1;fill:#000000;fill-opacity:0;stroke:none;stroke-width:41.8316;stroke-linecap:round;stroke-linejoin:round"
       id="rect13"
       width="30.427084"
       height="30.427084"
       x="-1.7763568e-15"
       y="-1.7763568e-15"
       inkscape:label="Background" /><path
       id="path13"
       style="display:inline;fill:none;fill-opacity:1;stroke:#ffffff;stroke-width:3.13646;stroke-linecap:square;stroke-dasharray:none;stroke-opacity:1"
       inkscape:label="stopwatch"
       d="m 10.565765,1.56823 h 1.605269 M 11.3684,2.4179086 V 4.1621247 M 22.244196,14.459692 h -0.308281 m -1.037149,0.767863 a 9.6652459,9.6625343 0 0 1 -9.52553,9.661525 9.6652459,9.6625343 0 0 1 -9.8009209,-9.382206 9.6652459,9.6625343 0 0 1 9.2421829,-9.932767 9.6652459,9.6625343 0 0 1 10.068115,9.095044"
       transform="matrix(1.0034698,0,0,0.99999888,1.984375,1.984375)" /><path
       style="display:inline;opacity:1;fill:none;fill-opacity:1;stroke:#ffffff;stroke-width:4.7625;stroke-linecap:square;stroke-dasharray:none;stroke-opacity:1"
       d="m 6.1195994,4.8695988 6.9999996,7.9999992 12.5,-11.99999968"
       id="path14"
       inkscape:label="check"
       sodipodi:nodetypes="ccc"
       transform="matrix(1.0034698,0,0,0.99999888,-0.64431368,4.6564407)" /></g><g
     inkscape:groupmode="layer"
     id="g53"
     inkscape:label="-----"
     style="display:inline" /><g
     inkscape:groupmode="layer"
     id="g29"
     inkscape:label="color_transparent_icon_android"
     style="display:none"><rect
       style="opacity:1;fill:#000000;fill-opacity:0;stroke:none;stroke-width:41.8316;stroke-linecap:round;stroke-linejoin:round"
       id="rect7"
       width="30.427084"
       height="30.427084"
       x="-1.7763568e-15"
       y="-1.7763568e-15"
       inkscape:label="Background" /><g
       inkscape:groupmode="layer"
       id="g37"
       inkscape:label="icon"
       style="display:inline"
       transform="matrix(0.63725544,0,0,0.63725544,5.3500303,5.3500295)"><path
         id="path34"
         style="display:inline;fill:none;fill-opacity:1;stroke:#464646;stroke-width:3.20836;stroke-linecap:square;stroke-dasharray:none;stroke-opacity:1"
         inkscape:label="stopwatch shadow"
         d="m 12.822302,3.588555 h 1.647412 M 13.646007,4.4548931 V 6.2333079 M 24.807326,16.732778 h -0.316375 m -1.064377,0.782917 A 9.9189868,9.8519858 0 0 1 13.65097,27.366656 9.9189868,9.8519858 0 0 1 3.5927488,17.80049 9.9189868,9.8519858 0 0 1 13.077564,7.6729744 9.9189868,9.8519858 0 0 1 23.409997,16.946342" /><path
         id="path35"
         style="display:inline;fill:none;fill-opacity:1;stroke:#fff176;stroke-width:3.14212;stroke-linecap:square;stroke-dasharray:none;stroke-opacity:1"
         inkscape:label="stopwatch"
         d="m 12.587676,3.555435 h 1.61146 m -0.80573,0.8494723 V 6.1487 m 10.917748,10.295067 h -0.309472 m -1.041149,0.767675 A 9.7025267,9.6601878 0 0 1 13.39826,26.870624 9.7025267,9.6601878 0 0 1 3.5595373,17.490693 9.7025267,9.6601878 0 0 1 12.837367,7.560339 9.7025267,9.6601878 0 0 1 22.944318,16.653174" /><path
         style="display:inline;fill:none;fill-opacity:1;stroke:#464646;stroke-width:4.88513;stroke-linecap:square;stroke-dasharray:none;stroke-opacity:1"
         d="M 5.5739491,9.7242991 12.733376,17.954169 25.518072,5.6093657"
         id="path36"
         inkscape:label="check shadow"
         sodipodi:nodetypes="ccc" /><path
         style="display:inline;fill:none;fill-opacity:1;stroke:#aed581;stroke-width:4.77111;stroke-linecap:square;stroke-dasharray:none;stroke-opacity:1"
         d="M 5.4946586,9.527421 12.52166,17.525479 25.069875,5.528394"
         id="path37"
         inkscape:label="check"
         sodipodi:nodetypes="ccc" /></g></g><g
     inkscape:groupmode="layer"
     id="layer5"
     inkscape:label="color_transparent_icon"
     style="display:inline"><rect
       style="opacity:1;fill:#000000;fill-opacity:0;stroke:none;stroke-width:41.8316;stroke-linecap:round;stroke-linejoin:round"
       id="rect5"
       width="30.427084"
       height="30.427084"
       x="-1.7763568e-15"
       y="-1.7763568e-15"
       inkscape:label="Background" /><g
       inkscape:groupmode="layer"
       id="g3"
       inkscape:label="icon"
       style="display:inline"><path
         id="path2"
         style="display:inline;fill:none;fill-opacity:1;stroke:#464646;stroke-width:3.20836;stroke-linecap:square;stroke-dasharray:none;stroke-opacity:1"
         inkscape:label="stopwatch shadow"
         d="m 12.822302,3.588555 h 1.647412 M 13.646007,4.4548931 V 6.2333079 M 24.807326,16.732778 h -0.316375 m -1.064377,0.782917 A 9.9189868,9.8519858 0 0 1 13.65097,27.366656 9.9189868,9.8519858 0 0 1 3.5927488,17.80049 9.9189868,9.8519858 0 0 1 13.077564,7.6729744 9.9189868,9.8519858 0 0 1 23.409997,16.946342" /><path
         id="path29"
         style="display:inline;fill:none;fill-opacity:1;stroke:#fff176;stroke-width:3.14212;stroke-linecap:square;stroke-dasharray:none;stroke-opacity:1"
         inkscape:label="stopwatch"
         d="m 12.587676,3.555435 h 1.61146 m -0.80573,0.8494723 V 6.1487 m 10.917748,10.295067 h -0.309472 m -1.041149,0.767675 A 9.7025267,9.6601878 0 0 1 13.39826,26.870624 9.7025267,9.6601878 0 0 1 3.5595373,17.490693 9.7025267,9.6601878 0 0 1 12.837367,7.560339 9.7025267,9.6601878 0 0 1 22.944318,16.653174" /><path
         style="display:inline;fill:none;fill-opacity:1;stroke:#464646;stroke-width:4.88513;stroke-linecap:square;stroke-dasharray:none;stroke-opacity:1"
         d="M 5.5739491,9.7242991 12.733376,17.954169 25.518072,5.6093657"
         id="path3"
         inkscape:label="check shadow"
         sodipodi:nodetypes="ccc" /><path
         style="display:inline;fill:none;fill-opacity:1;stroke:#aed581;stroke-width:4.77111;stroke-linecap:square;stroke-dasharray:none;stroke-opacity:1"
         d="M 5.4946586,9.527421 12.52166,17.525479 25.069875,5.528394"
         id="path28"
         inkscape:label="check"
         sodipodi:nodetypes="ccc" /></g></g></svg>
