<?xml version="1.0" encoding="UTF-8" standalone="no"?>
<svg
   viewBox="0 0 512 512"
   version="1.1"
   id="svg2"
   sodipodi:docname="shovel.svg"
   inkscape:version="1.4.4 (dcaf3e7d9e, 2026-05-05)"
   xmlns:inkscape="http://www.inkscape.org/namespaces/inkscape"
   xmlns:sodipodi="http://sodipodi.sourceforge.net/DTD/sodipodi-0.dtd"
   xmlns="http://www.w3.org/2000/svg"
   xmlns:svg="http://www.w3.org/2000/svg">
  <sodipodi:namedview
     id="namedview2"
     pagecolor="#505050"
     bordercolor="#eeeeee"
     borderopacity="1"
     inkscape:showpageshadow="0"
     inkscape:pageopacity="0"
     inkscape:pagecheckerboard="0"
     inkscape:deskcolor="#505050"
     inkscape:zoom="2.2460938"
     inkscape:cx="255.77739"
     inkscape:cy="256"
     inkscape:window-width="3440"
     inkscape:window-height="1359"
     inkscape:window-x="0"
     inkscape:window-y="0"
     inkscape:window-maximized="1"
     inkscape:current-layer="svg2" />
  <!-- Font Awesome Pro 5.15.4 by @fontawesome - https://fontawesome.com License - https://fontawesome.com/license (Commercial License) -->
  <defs
     id="defs1">
    <style
       id="style1">.fa-secondary{opacity:.4}</style>
  </defs>
  <path
     d="M500.28 96.39l-84.67-84.68a40 40 0 0 0-56.56 0l-32.67 32.67a98.91 98.91 0 0 0-18.77 114.77L197.35 269.4l45.26 45.23 110.25-110.24a98.88 98.88 0 0 0 114.75-18.76L500.28 153a40 40 0 0 0 0-56.57zm-77.91 44a35.89 35.89 0 0 1-50.75-50.75l15.7-15.7 50.75 50.75z"
     class="fa-secondary"
     id="path1"
     style="opacity:1;fill:#ffff00;fill-opacity:1" />
  <path
     d="M287.87 405.13L220 473c-50 50-181 45.3-203.66 22.65S-11 342 39 292l67.85-67.88a32 32 0 0 1 45.25 0l135.77 135.76a32 32 0 0 1 0 45.25z"
     class="fa-primary"
     id="path2"
     style="opacity:0.4;fill:#ffff00;fill-opacity:1" />
</svg>
