<?xml version="1.0" encoding="UTF-8" standalone="no"?>
<svg
   viewBox="0 0 576 512"
   version="1.1"
   id="svg2"
   sodipodi:docname="star.svg"
   inkscape:version="1.4.4 (dcaf3e7d9e, 2026-05-05)"
   xmlns:inkscape="http://www.inkscape.org/namespaces/inkscape"
   xmlns:sodipodi="http://sodipodi.sourceforge.net/DTD/sodipodi-0.dtd"
   xmlns="http://www.w3.org/2000/svg"
   xmlns:svg="http://www.w3.org/2000/svg">
  <sodipodi:namedview
     id="namedview2"
     pagecolor="#505050"
     bordercolor="#eeeeee"
     borderopacity="1"
     inkscape:showpageshadow="0"
     inkscape:pageopacity="0"
     inkscape:pagecheckerboard="0"
     inkscape:deskcolor="#505050"
     inkscape:zoom="2.2460938"
     inkscape:cx="287.83304"
     inkscape:cy="256"
     inkscape:window-width="3440"
     inkscape:window-height="1359"
     inkscape:window-x="0"
     inkscape:window-y="0"
     inkscape:window-maximized="1"
     inkscape:current-layer="svg2" />
  <!-- Font Awesome Pro 5.15.4 by @fontawesome - https://fontawesome.com License - https://fontawesome.com/license (Commercial License) -->
  <defs
     id="defs1">
    <style
       id="style1">.fa-secondary{opacity:.4}</style>
  </defs>
  <path
     d="M528.53 171.5l-146.36-21.3-65.43-132.39c-11.71-23.59-45.68-23.89-57.48 0L193.83 150.2 47.47 171.5c-26.27 3.79-36.79 36.08-17.75 54.58l105.91 103-25 145.49c-4.52 26.3 23.22 46 46.48 33.69L288 439.56l130.93 68.69c23.26 12.21 51-7.39 46.48-33.69l-25-145.49 105.91-103c19-18.49 8.48-50.78-17.79-54.57zm-90.89 71l-66.05 64.23 15.63 90.86a12 12 0 0 1-17.4 12.66L288 367.27l-81.82 42.94a12 12 0 0 1-17.4-12.66l15.63-90.86-66-64.23A12 12 0 0 1 145 222l91.34-13.28 40.9-82.81a12 12 0 0 1 21.52 0l40.9 82.81L431 222a12 12 0 0 1 6.64 20.46z"
     class="fa-secondary"
     id="path1"
     style="fill:#ffff00;fill-opacity:1" />
  <path
     d="M437.64 242.46l-66.05 64.23 15.63 90.86a12 12 0 0 1-17.4 12.66L288 367.27l-81.82 42.94a12 12 0 0 1-17.4-12.66l15.63-90.86-66-64.23A12 12 0 0 1 145 222l91.34-13.28 40.9-82.81a12 12 0 0 1 21.52 0l40.9 82.81L431 222a12 12 0 0 1 6.64 20.46z"
     class="fa-primary"
     id="path2"
     style="fill:#ffff00" />
</svg>
